<?xml version="1.0" encoding="iso-8859-1"?>
<!-- Uploaded to: SVG Repo, www.svgrepo.com, Generator: SVG Repo Mixer Tools -->
<svg fill="#15803d" version="1.1" id="Layer_1" xmlns="http://www.w3.org/2000/svg" xmlns:xlink="http://www.w3.org/1999/xlink" 
	 viewBox="0 0 512.001 512.001" xml:space="preserve">
<g>
	<g>
		<polygon points="75.708,228.375 68.146,235.939 60.504,228.296 49.729,239.07 68.146,257.487 86.484,239.149 		"/>
	</g>
</g>
<g>
	<g>
		<polygon points="476.079,302.649 468.514,310.213 460.873,302.57 450.098,313.344 468.514,331.761 486.852,313.424 		"/>
	</g>
</g>
<g>
	<g>
		<polygon points="199.55,378.37 191.986,385.935 184.344,378.292 173.569,389.067 191.986,407.482 210.325,389.145 		"/>
	</g>
</g>
<g>
	<g>
		<path d="M314.216,496.557l-9.281-6.987c-10.86-8.174-23.037-12.942-35.438-14.33V300.952L459.733,88.939h-63.404l26.455-40.266
			c1.849,0.444,3.776,0.686,5.76,0.686c13.608,0,24.679-11.07,24.679-24.679c0-13.609-11.071-24.68-24.679-24.68
			s-24.68,11.071-24.68,24.68c0,6.11,2.237,11.704,5.928,16.018l-31.696,48.241H136.512c-3.729-27.257-27.151-48.329-55.415-48.329
			c-30.85,0-55.947,25.098-55.947,55.948c0,30.85,25.097,55.947,55.947,55.947c11.6,0,22.387-3.55,31.332-9.62L254.26,300.953
			v174.288c-12.401,1.387-24.579,6.156-35.439,14.33l-9.276,6.982c-0.085,0.064-0.154,0.143-0.238,0.21h-31.111v15.237h36.334
			h94.696h36.334v-15.237h-31.112C314.367,496.697,314.3,496.62,314.216,496.557z M428.544,15.237c5.206,0,9.442,4.236,9.442,9.443
			c0,5.206-4.236,9.442-9.442,9.442c-5.207,0-9.443-4.236-9.443-9.442C419.101,19.473,423.337,15.237,428.544,15.237z
			 M47.443,73.677l15.261,15.261H41.112C42.17,83.37,44.36,78.199,47.443,73.677z M41.112,104.175h21.592l-15.26,15.26
			C44.36,114.915,42.171,109.744,41.112,104.175z M73.478,136.542c-5.569-1.058-10.74-3.249-15.26-6.331l15.26-15.26V136.542z
			 M73.478,78.162l-15.26-15.259c4.52-3.083,9.692-5.272,15.26-6.331V78.162z M278.919,267.637l77.978-118.683
			c1.485,0.079,3.049,0.125,4.712,0.125c13.96,0,21.318-2.998,27.81-5.642c0.497-0.202,0.987-0.401,1.477-0.598L278.919,267.637z
			 M386.319,104.175h39.271l-17.57,19.582c-11.748,0.451-18.417,3.154-24.346,5.569c-4.889,1.992-9.237,3.757-16.721,4.324
			L386.319,104.175z M88.715,56.571c5.569,1.058,10.74,3.248,15.261,6.331l-15.261,15.26V56.571z M88.715,136.542v-20.086
			l13.411,14.946C98.064,133.862,93.538,135.624,88.715,136.542z M114.75,119.436l-15.26-15.26h21.592
			C120.023,109.744,117.833,114.915,114.75,119.436z M99.489,88.939l15.261-15.261c3.083,4.52,5.272,9.693,6.331,15.261H99.489z
			 M136.512,104.175h231.575l-18.708,28.473c-3.715-0.837-6.662-2.031-9.831-3.322c-6.492-2.644-13.85-5.642-27.81-5.642
			c-13.958,0-21.315,2.998-27.807,5.643c-5.947,2.423-11.084,4.515-22.059,4.515s-16.11-2.094-22.059-4.515
			c-6.492-2.645-13.849-5.643-27.808-5.643c-13.959,0-21.316,2.998-27.808,5.643c-5.946,2.423-11.084,4.515-22.058,4.515
			c-10.975,0-16.11-2.094-22.058-4.515c-3.252-1.325-6.72-2.738-11.126-3.818C132.833,119.121,135.455,111.894,136.512,104.175z
			 M253.988,277.833l-121.124-134.99c0.487,0.195,0.973,0.393,1.467,0.594c6.492,2.645,13.848,5.643,27.807,5.643
			c13.958,0,21.315-2.998,27.807-5.643c5.947-2.423,11.084-4.515,22.059-4.515s16.11,2.094,22.059,4.515
			c6.492,2.645,13.849,5.643,27.808,5.643s21.316-2.998,27.808-5.643c5.946-2.423,11.084-4.515,22.058-4.515
			c10.977,0,16.113,2.094,22.063,4.516c2.108,0.858,4.313,1.753,6.8,2.571L253.988,277.833z M235.705,496.763
			c16.705-9.095,35.639-9.097,52.348,0H235.705z"/>
	</g>
</g>
<g>
	<g>
		<rect x="191.944" y="152.267" width="14.193" height="15.237"/>
	</g>
</g>
<g>
	<g>
		<rect x="255.37" y="157.488" width="14.193" height="15.237"/>
	</g>
</g>
<g>
	<g>
		<rect x="280.928" y="183.411" width="14.193" height="15.237"/>
	</g>
</g>
<g>
	<g>
		<rect x="219.249" y="212.341" width="14.194" height="15.237"/>
	</g>
</g>
</svg>