<?xml version="1.0" ?>

<!-- Uploaded to: SVG Repo, www.svgrepo.com, Generator: SVG Repo Mixer Tools -->
<svg width="800px" height="800px" viewBox="0 0 64 64" xmlns="http://www.w3.org/2000/svg">

<defs>

<style>.cls-1{fill:none;stroke:#15803d;stroke-linejoin:round;stroke-width:2px;}</style>

</defs>

<title/>

<g data-name="Layer 16" id="Layer_16">

<path class="cls-1" d="M22,58H54a0,0,0,0,1,0,0v2a2,2,0,0,1-2,2H24a2,2,0,0,1-2-2V58A0,0,0,0,1,22,58Z"/>

<path class="cls-1" d="M24,26H52a0,0,0,0,1,0,0V53a5,5,0,0,1-5,5H29a5,5,0,0,1-5-5V26A0,0,0,0,1,24,26Z"/>

<path class="cls-1" d="M52,30h6a4,4,0,0,1,4,4V48a2,2,0,0,1-2,2h0a2,2,0,0,1-2-2V36a2,2,0,0,0-2-2H52"/>

<line class="cls-1" x1="24" x2="52" y1="32" y2="32"/>

<polygon class="cls-1" points="48 40 48 48 38 48 38 40 42 36 44 36 48 40"/>

<path class="cls-1" d="M43,36V25a3,3,0,0,1,3-3h0a3,3,0,0,1,3,3v1"/>

<path class="cls-1" d="M24,52H8a4,4,0,0,1-4-4V10H34V26"/>

<rect class="cls-1" height="8" width="34" x="2" y="2"/>

<polyline class="cls-1" points="24 42 4 42 4 20 34 20 34 26"/>

<path class="cls-1" d="M21.5,28.5h0a8.54,8.54,0,0,1,2.5,6V36H22.54a8.54,8.54,0,0,1-6-2.5h0a8.54,8.54,0,0,1-2.5-6V26h1.46A8.54,8.54,0,0,1,21.5,28.5Z"/>

</g>

</svg>