<?xml version="1.0" encoding="iso-8859-1"?>
<!-- Uploaded to: SVG Repo, www.svgrepo.com, Generator: SVG Repo Mixer Tools -->
<svg fill="#000000" height="800px" width="800px" version="1.1" id="Layer_1" xmlns="http://www.w3.org/2000/svg" xmlns:xlink="http://www.w3.org/1999/xlink" 
	 viewBox="0 0 512 512" xml:space="preserve">
<g>
	<g>
		<g>
			<path d="M488.843,76.164l-28.475-7.628c-33.881-9.243-69.899-7.753-103.01,4.292c-18.883,6.155-19.958,6.296-38.651,0.207
				c-34.458-16.238-80.786-13.32-113.894,6.539l-0.954,0.396C196.595,83.57,192,90.977,192,99.084v7.58h-21.333V85.331
				c0-22.747-19.919-42.667-42.667-42.667H41.195C18.447,42.664,0,61.111,0,83.859v86.805c0,3.312,0.771,6.578,2.252,9.541
				l21.333,42.667c3.614,7.227,11.001,11.793,19.081,11.793H128c8.081,0,15.467-4.565,19.081-11.793l21.333-42.667
				c1.481-2.962,2.252-6.229,2.252-9.541v-21.333H192v21.327c0,8.054,4.536,15.421,11.727,19.048l2.453,1.237
				c32.522,18.456,79.321,21.083,113.499,5.315c17.709-6.209,17.991-6.209,37.928,0.766c32.932,11.18,68.592,12.624,102.356,4.286
				l28.757-7.699c15.046-4.126,23.28-17.304,23.28-31.828V107.98C512,93.457,503.776,80.259,488.843,76.164z M128,165.628
				l-13.185,26.369H55.851l-13.185-26.369V85.331H128V165.628z M469.333,154.633l-20.005,5.359
				c-25.474,6.286-52.824,5.179-77.82-3.306c-28.918-10.117-39.218-10.11-67.918,0.102c-20.438,9.345-47.866,9.084-68.923,0.566
				v-45.122c21.621-9.153,48.095-9.341,66.661-0.212l2.791,1.135c28.602,9.342,38.554,9.342,67.156,0
				c25.493-9.261,52.494-10.378,77.96-3.431l20.1,5.384V154.633z"/>
			<path d="M100.425,278.401c-8.33-8.33-21.835-8.331-30.166-0.004l-45.269,45.248c-33.314,33.342-33.314,87.352-0.01,120.684
				c33.34,33.34,87.36,33.34,120.694,0.006s33.334-87.353,0-120.687L100.425,278.401z M115.503,414.167
				c-16.672,16.672-43.676,16.672-60.347,0c-16.652-16.667-16.652-43.681,0.006-60.354l30.174-30.16l30.167,30.167
				C132.174,370.491,132.174,397.495,115.503,414.167z"/>
		</g>
	</g>
</g>
</svg>